<svg width="60" height="60" viewBox="0 0 60 60" fill="none" xmlns="http://www.w3.org/2000/svg">
<rect width="59.4523" height="59.4523" fill="#0F0F0F"/>
<path d="M32.8309 55.3103L35.9206 39.4097C35.996 39.0329 35.9959 38.5807 35.9206 38.204L35.7699 37.2997C35.6192 36.2446 36.4481 35.4157 37.5031 35.5664L38.2567 35.7171C38.6335 35.7925 39.0856 35.7925 39.4624 35.7171L55.363 32.9289C56.7195 32.6275 57.8498 31.6478 58.0006 30.2913C58.2266 28.5581 57.0963 26.9756 55.4384 26.6742L39.5378 23.5845C39.161 23.5091 38.7089 23.5091 38.3321 23.5845L37.4278 23.7352C36.3727 23.8859 35.5438 23.057 35.6945 22.0019L35.8452 21.2483C35.9206 20.8716 35.9206 20.4194 35.8452 20.0426L33.057 4.14203C32.7555 2.78558 31.7759 1.65521 30.4194 1.50449C28.6862 1.27841 27.1037 2.4088 26.8022 4.06668L23.7126 19.9673C23.6372 20.3441 23.6372 20.7962 23.7126 21.173L23.8633 22.0773C24.014 23.1323 23.185 23.9613 22.13 23.8105L21.3764 23.6598C20.9997 23.5845 20.5475 23.5845 20.1707 23.6598L4.11942 26.4481C2.61226 26.7495 1.48188 28.0306 1.48188 29.5378C1.48188 31.0449 2.53689 32.4014 4.04405 32.7028L19.9446 35.7925C20.3214 35.8679 20.7736 35.8679 21.1504 35.7925L22.0547 35.6418C23.1097 35.4911 23.9386 36.32 23.7879 37.375L23.6372 38.1286C23.5618 38.5054 23.5618 38.9575 23.6372 39.3343L26.5008 55.461C26.8022 56.9682 28.0833 58.0985 29.5905 58.0985C31.2484 57.9478 32.5295 56.8174 32.8309 55.3103Z" fill="#1673FF"/>
</svg>
